<svg id="Layer_1" data-name="Layer 1" xmlns="http://www.w3.org/2000/svg" viewBox="0 0 122 28.5"><defs><style>.cls-1,.cls-2{fill:#fff;}.cls-2{font-size:21px;font-family:MicrosoftTaiLe-Bold, Microsoft Tai Le;font-weight:700;}</style></defs><title>kotlinfarsi-new</title><path class="cls-1" d="M88.52,20.8c-1.06.14-1.58.61-1.58,1.42a1.19,1.19,0,0,0,.38.91,1.48,1.48,0,0,0,1,.36,1.92,1.92,0,0,0,1.49-.63,2.32,2.32,0,0,0,.57-1.6v-.71Zm0,0c-1.06.14-1.58.61-1.58,1.42a1.19,1.19,0,0,0,.38.91,1.48,1.48,0,0,0,1,.36,1.92,1.92,0,0,0,1.49-.63,2.32,2.32,0,0,0,.57-1.6v-.71ZM123.37,4.36H69A2.84,2.84,0,0,0,66.2,7.19V30A2.85,2.85,0,0,0,69,32.86h54.34A2.85,2.85,0,0,0,126.2,30V7.19A2.84,2.84,0,0,0,123.37,4.36ZM82.63,13.52H77.44v3.61h4.77v2.68H77.44v5.72H74.13V10.82h8.5Zm10.84,12H90.4V24h0a3.41,3.41,0,0,1-3.12,1.76,3.32,3.32,0,0,1-2.41-.86A3.14,3.14,0,0,1,84,22.6c0-2,1.21-3.21,3.62-3.52l2.85-.38c0-1.15-.62-1.73-1.86-1.73A6.43,6.43,0,0,0,85,18.09V15.65A7.82,7.82,0,0,1,86.84,15,9.63,9.63,0,0,1,89,14.77q4.48,0,4.49,4.48ZM102.88,18a2.82,2.82,0,0,0-1.36-.32,2,2,0,0,0-1.65.78,3.32,3.32,0,0,0-.6,2.1v5H96V15h3.24V17h0a2.81,2.81,0,0,1,2.77-2.13,2.14,2.14,0,0,1,.8.12Zm8.48,6A3.28,3.28,0,0,1,110.28,25a4.87,4.87,0,0,1-1.55.6,8.32,8.32,0,0,1-1.82.19,9.32,9.32,0,0,1-3.21-.53V22.62a6.43,6.43,0,0,0,1.6.72,5.2,5.2,0,0,0,1.5.24,3.19,3.19,0,0,0,1.36-.24.75.75,0,0,0,.5-.72.68.68,0,0,0-.23-.51,2.41,2.41,0,0,0-.58-.36,6.26,6.26,0,0,0-.77-.27c-.28-.09-.55-.18-.81-.28a8.29,8.29,0,0,1-1.11-.51,3.38,3.38,0,0,1-.8-.63,2.76,2.76,0,0,1-.49-.83,3.38,3.38,0,0,1-.17-1.12,2.8,2.8,0,0,1,.39-1.51,3.1,3.1,0,0,1,1-1.05,4.82,4.82,0,0,1,1.47-.59,7.43,7.43,0,0,1,1.72-.19,9.78,9.78,0,0,1,1.41.11,10,10,0,0,1,1.42.31v2.5a5.09,5.09,0,0,0-1.32-.54,5.57,5.57,0,0,0-1.38-.18,2.91,2.91,0,0,0-.6.06,1.84,1.84,0,0,0-.5.17,1,1,0,0,0-.34.27.67.67,0,0,0-.12.39.69.69,0,0,0,.19.49,1.49,1.49,0,0,0,.48.35,5,5,0,0,0,.66.27l.72.24a9.16,9.16,0,0,1,1.17.49,3.79,3.79,0,0,1,.9.63,2.41,2.41,0,0,1,.57.84,2.85,2.85,0,0,1,.2,1.15A3,3,0,0,1,111.36,23.91Zm5.51,1.62h-3.24V15h3.24Zm-.25-12.64a1.92,1.92,0,0,1-1.35.48,1.89,1.89,0,0,1-1.34-.49,1.58,1.58,0,0,1-.53-1.2,1.53,1.53,0,0,1,.53-1.19,2,2,0,0,1,1.34-.46,2,2,0,0,1,1.35.46,1.64,1.64,0,0,1,0,2.4ZM86.94,22.22a1.19,1.19,0,0,0,.38.91,1.48,1.48,0,0,0,1,.36,1.92,1.92,0,0,0,1.49-.63,2.32,2.32,0,0,0,.57-1.6v-.71l-1.9.25C87.46,20.94,86.94,21.41,86.94,22.22Z" transform="translate(-4.2 -4.36)"/><text class="cls-2" transform="translate(0 21.17)">Kotlin </text></svg>